<svg xmlns="http://www.w3.org/2000/svg" xmlns:xlink="http://www.w3.org/1999/xlink" width="464" zoomAndPan="magnify" viewBox="0 0 348 225.75" height="301" preserveAspectRatio="xMidYMid meet" version="1.0"><defs><clipPath id="83b2e95b9a"><path d="M 0.191406 0 L 347.804688 0 L 347.804688 225.5 L 0.191406 225.5 Z M 0.191406 0 " clip-rule="nonzero"/></clipPath><clipPath id="7da095cb51"><path d="M 8.5625 20.257812 L 296.972656 20.257812 L 296.972656 208.605469 L 8.5625 208.605469 Z M 8.5625 20.257812 " clip-rule="nonzero"/></clipPath><clipPath id="708e87a907"><path d="M 85 23.144531 L 341.492188 23.144531 L 341.492188 214.0625 L 85 214.0625 Z M 85 23.144531 " clip-rule="nonzero"/></clipPath><clipPath id="6f1e6fe9f1"><path d="M 84 23 L 85.828125 23 L 85.828125 209.890625 L 84 209.890625 Z M 84 23 " clip-rule="nonzero"/></clipPath><clipPath id="255fbf24e9"><path d="M 265 139 L 344.0625 139 L 344.0625 216.511719 L 265 216.511719 Z M 265 139 " clip-rule="nonzero"/></clipPath><clipPath id="388d8abd9e"><path d="M 134 173 L 180 173 L 180 225.5 L 134 225.5 Z M 134 173 " clip-rule="nonzero"/></clipPath><clipPath id="c93302dc36"><path d="M 323.113281 156.710938 L 347.234375 156.710938 L 347.234375 224.980469 L 323.113281 224.980469 Z M 323.113281 156.710938 " clip-rule="nonzero"/></clipPath><clipPath id="32c3eaaccd"><path d="M 0.113281 0.710938 L 24.234375 0.710938 L 24.234375 68.980469 L 0.113281 68.980469 Z M 0.113281 0.710938 " clip-rule="nonzero"/></clipPath><clipPath id="f6760d46c3"><rect x="0" width="25" y="0" height="69"/></clipPath></defs><g clip-path="url(#83b2e95b9a)"><path fill="#ffffff" d="M 0.191406 0 L 347.808594 0 L 347.808594 225.5 L 0.191406 225.5 Z M 0.191406 0 " fill-opacity="1" fill-rule="nonzero"/></g><g clip-path="url(#7da095cb51)"><path fill="#000000" d="M 8.5625 208.605469 L 50.515625 208.605469 L 67.636719 166.65625 L 99.421875 166.65625 C 108.195312 153.8125 117.71875 141.71875 127.886719 130.269531 L 82.40625 130.269531 L 107.125 69.699219 L 130.667969 127.058594 C 139.871094 116.890625 149.613281 107.261719 159.777344 98.164062 L 126.601562 20.148438 L 88.71875 20.148438 Z M 296.972656 21.648438 L 167.375 21.648438 L 167.375 57.710938 L 215.425781 57.710938 C 240.789062 42.621094 268.078125 30.53125 296.972656 21.648438 Z M 296.972656 21.648438 " fill-opacity="1" fill-rule="evenodd"/></g><g clip-path="url(#708e87a907)"><path fill="#000000" d="M 164.164062 208.605469 L 319.875 208.605469 L 319.875 172.539062 L 217.03125 172.539062 L 319.875 52.894531 L 319.875 32.992188 C 326.9375 29.566406 334.109375 26.464844 341.386719 23.464844 C 229.875 44.121094 137.304688 113.359375 85.292969 214.0625 L 156.140625 214.0625 C 158.28125 204.644531 160.957031 195.441406 164.164062 186.773438 Z M 257.269531 69.054688 L 171.871094 168.472656 C 190.8125 127.488281 220.882812 94.953125 257.269531 69.054688 Z M 257.269531 69.054688 " fill-opacity="1" fill-rule="evenodd"/></g><path fill="#ffc935" d="M 171.230469 168.796875 C 184.285156 144.609375 209.648438 105.441406 254.378906 70.980469 C 287.875 45.296875 320.515625 31.066406 343.738281 23.144531 C 312.0625 28.816406 252.027344 43.90625 191.242188 88.425781 C 129.921875 133.371094 97.921875 186.238281 83.261719 214.597656 C 107.234375 214.597656 131.3125 214.597656 155.285156 214.597656 C 157.210938 206.25 159.886719 197.15625 163.417969 187.417969 C 165.984375 180.675781 168.554688 174.46875 171.230469 168.796875 Z M 171.230469 168.796875 " fill-opacity="1" fill-rule="nonzero"/><g clip-path="url(#6f1e6fe9f1)"><path fill="#000000" d="M 163.628906 208.285156 L 319.339844 208.285156 C 319.339844 188.378906 303.179688 172.21875 283.273438 172.21875 L 216.496094 172.21875 L 319.339844 52.683594 L 319.339844 32.777344 C 326.402344 29.351562 333.574219 26.25 340.851562 23.253906 C 229.339844 43.90625 136.769531 113.148438 84.757812 213.847656 L 155.605469 213.847656 C 157.746094 204.433594 160.421875 195.226562 163.628906 186.558594 Z M 256.734375 68.84375 L 171.230469 168.261719 C 190.277344 127.164062 220.347656 94.738281 256.734375 68.84375 Z M 256.734375 68.84375 " fill-opacity="1" fill-rule="evenodd"/></g><g clip-path="url(#255fbf24e9)"><path fill="#000000" d="M 266.257812 315.085938 L 265.617188 293.898438 L 273.324219 275.277344 L 356.472656 177.464844 C 365.355469 170.507812 376.058594 163.125 388.472656 155.953125 C 400.457031 148.996094 411.800781 143.753906 421.863281 139.578125 C 421.863281 146.214844 421.863281 152.851562 421.863281 159.484375 L 319.019531 279.128906 L 421.96875 279.128906 L 421.96875 315.195312 L 266.257812 315.195312 Z M 266.257812 315.085938 " fill-opacity="1" fill-rule="nonzero"/></g><g clip-path="url(#388d8abd9e)"><path stroke-linecap="butt" transform="matrix(0.230941, -0.712687, 0.712687, 0.230941, 150.516049, 224.053326)" fill="none" stroke-linejoin="miter" d="M -0.000536503 2.000151 L 47.893438 2.002707 " stroke="#ffffff" stroke-width="4" stroke-opacity="1" stroke-miterlimit="4"/></g><g clip-path="url(#c93302dc36)"><g transform="matrix(1, 0, 0, 1, 323, 156)"><g clip-path="url(#f6760d46c3)"><g clip-path="url(#32c3eaaccd)"><path fill="#ffffff" d="M 0.113281 0.710938 L 24.234375 0.710938 L 24.234375 69.019531 L 0.113281 69.019531 Z M 0.113281 0.710938 " fill-opacity="1" fill-rule="nonzero"/></g></g></g></g></svg>