<svg xmlns="http://www.w3.org/2000/svg" xmlns:xlink="http://www.w3.org/1999/xlink" width="500" zoomAndPan="magnify" viewBox="0 0 375 374.999991" height="500" preserveAspectRatio="xMidYMid meet" version="1.0"><defs><clipPath id="74133b0709"><path d="M 17.25 0 L 357.75 0 C 362.324219 0 366.710938 1.816406 369.949219 5.050781 C 373.183594 8.289062 375 12.675781 375 17.25 L 375 357.75 C 375 362.324219 373.183594 366.710938 369.949219 369.949219 C 366.710938 373.183594 362.324219 375 357.75 375 L 17.25 375 C 12.675781 375 8.289062 373.183594 5.050781 369.949219 C 1.816406 366.710938 0 362.324219 0 357.75 L 0 17.25 C 0 12.675781 1.816406 8.289062 5.050781 5.050781 C 8.289062 1.816406 12.675781 0 17.25 0 Z M 17.25 0 " clip-rule="nonzero"/></clipPath><clipPath id="504bba4568"><path d="M 0 0 L 375 0 L 375 375 L 0 375 Z M 0 0 " clip-rule="nonzero"/></clipPath><clipPath id="5ed4217e48"><path d="M 17.25 0 L 357.75 0 C 362.324219 0 366.710938 1.816406 369.949219 5.050781 C 373.183594 8.289062 375 12.675781 375 17.25 L 375 357.75 C 375 362.324219 373.183594 366.710938 369.949219 369.949219 C 366.710938 373.183594 362.324219 375 357.75 375 L 17.25 375 C 12.675781 375 8.289062 373.183594 5.050781 369.949219 C 1.816406 366.710938 0 362.324219 0 357.75 L 0 17.25 C 0 12.675781 1.816406 8.289062 5.050781 5.050781 C 8.289062 1.816406 12.675781 0 17.25 0 Z M 17.25 0 " clip-rule="nonzero"/></clipPath><clipPath id="91acadca6a"><rect x="0" width="375" y="0" height="375"/></clipPath><clipPath id="bd88fc7448"><path d="M 22.167969 93.003906 L 310.898438 93.003906 L 310.898438 281.5625 L 22.167969 281.5625 Z M 22.167969 93.003906 " clip-rule="nonzero"/></clipPath><clipPath id="07ee64de9b"><path d="M 98.125 96 L 355.464844 96 L 355.464844 287.027344 L 98.125 287.027344 Z M 98.125 96 " clip-rule="nonzero"/></clipPath><clipPath id="c0423dff33"><path d="M 98 96 L 99.519531 96 L 99.519531 282.847656 L 98 282.847656 Z M 98 96 " clip-rule="nonzero"/></clipPath><clipPath id="0fe9e5386b"><path d="M 279 212 L 358.039062 212 L 358.039062 289.476562 L 279 289.476562 Z M 279 212 " clip-rule="nonzero"/></clipPath><clipPath id="a001e395d9"><path d="M 337.066406 229.609375 L 361.210938 229.609375 L 361.210938 297.953125 L 337.066406 297.953125 Z M 337.066406 229.609375 " clip-rule="nonzero"/></clipPath><clipPath id="fb9536f161"><path d="M 0.0664062 0.609375 L 24.210938 0.609375 L 24.210938 68.953125 L 0.0664062 68.953125 Z M 0.0664062 0.609375 " clip-rule="nonzero"/></clipPath><clipPath id="f8887870d4"><rect x="0" width="25" y="0" height="69"/></clipPath></defs><g clip-path="url(#74133b0709)"><g transform="matrix(1, 0, 0, 1, 0, 0)"><g clip-path="url(#91acadca6a)"><g clip-path="url(#504bba4568)"><g clip-path="url(#5ed4217e48)"><rect x="-82.5" width="540" fill="#000000" height="539.999987" y="-82.499998" fill-opacity="1"/></g></g></g></g></g><g clip-path="url(#bd88fc7448)"><path fill="#ffffff" d="M 22.167969 281.5625 L 64.164062 281.5625 L 81.304688 239.566406 L 113.125 239.566406 C 121.910156 226.707031 131.445312 214.601562 141.625 203.140625 L 96.089844 203.140625 L 120.839844 142.5 L 144.410156 199.925781 C 153.621094 189.746094 163.371094 180.105469 173.550781 171 L 140.335938 92.898438 L 102.410156 92.898438 Z M 310.898438 94.398438 L 181.15625 94.398438 L 181.15625 130.5 L 229.261719 130.5 C 254.652344 115.394531 281.96875 103.289062 310.898438 94.398438 Z M 310.898438 94.398438 " fill-opacity="1" fill-rule="evenodd"/></g><g clip-path="url(#07ee64de9b)"><path fill="#ffffff" d="M 177.941406 281.5625 L 333.824219 281.5625 L 333.824219 245.457031 L 230.867188 245.457031 L 333.824219 125.679688 L 333.824219 105.753906 C 340.894531 102.324219 348.074219 99.21875 355.359375 96.21875 C 243.722656 116.894531 151.050781 186.210938 98.984375 287.027344 L 169.90625 287.027344 C 172.050781 277.597656 174.726562 268.382812 177.941406 259.707031 Z M 271.148438 141.859375 L 185.65625 241.386719 C 204.617188 200.355469 234.722656 167.785156 271.148438 141.859375 Z M 271.148438 141.859375 " fill-opacity="1" fill-rule="evenodd"/></g><path fill="#ffc935" d="M 185.011719 241.707031 C 198.082031 217.496094 223.476562 178.285156 268.257812 143.785156 C 301.789062 118.074219 334.464844 103.824219 357.714844 95.898438 C 326.003906 101.574219 265.898438 116.679688 205.046875 161.25 C 143.660156 206.246094 111.625 259.171875 96.949219 287.5625 C 120.945312 287.5625 145.050781 287.5625 169.050781 287.5625 C 170.980469 279.207031 173.65625 270.097656 177.191406 260.347656 C 179.761719 253.601562 182.335938 247.386719 185.011719 241.707031 Z M 185.011719 241.707031 " fill-opacity="1" fill-rule="nonzero"/><g clip-path="url(#c0423dff33)"><path fill="#ffffff" d="M 177.40625 281.242188 L 333.289062 281.242188 C 333.289062 261.3125 317.109375 245.136719 297.183594 245.136719 L 230.332031 245.136719 L 333.289062 125.464844 L 333.289062 105.539062 C 340.359375 102.109375 347.539062 99.003906 354.824219 96.003906 C 243.1875 116.679688 150.515625 185.996094 98.449219 286.8125 L 169.371094 286.8125 C 171.515625 277.382812 174.191406 268.171875 177.40625 259.492188 Z M 270.613281 141.644531 L 185.011719 241.171875 C 204.082031 200.03125 234.1875 167.570312 270.613281 141.644531 Z M 270.613281 141.644531 " fill-opacity="1" fill-rule="evenodd"/></g><g clip-path="url(#0fe9e5386b)"><path fill="#ffffff" d="M 280.148438 388.160156 L 279.507812 366.949219 L 287.21875 348.308594 L 370.464844 250.386719 C 379.355469 243.421875 390.070312 236.03125 402.496094 228.851562 C 414.496094 221.886719 425.851562 216.636719 435.921875 212.460938 C 435.921875 219.101562 435.921875 225.746094 435.921875 232.386719 L 332.96875 352.164062 L 436.03125 352.164062 L 436.03125 388.269531 L 280.148438 388.269531 Z M 280.148438 388.160156 " fill-opacity="1" fill-rule="nonzero"/></g><path stroke-linecap="butt" transform="matrix(0.231197, -0.713476, 0.713476, 0.231197, 164.277591, 297.026932)" fill="none" stroke-linejoin="miter" d="M 0.000741972 1.997772 L 47.896101 1.999133 " stroke="#000000" stroke-width="4" stroke-opacity="1" stroke-miterlimit="4"/><g clip-path="url(#a001e395d9)"><g transform="matrix(1, 0, 0, 1, 337, 229)"><g clip-path="url(#f8887870d4)"><g clip-path="url(#fb9536f161)"><path fill="#000000" d="M 0.0664062 0.609375 L 24.210938 0.609375 L 24.210938 68.992188 L 0.0664062 68.992188 Z M 0.0664062 0.609375 " fill-opacity="1" fill-rule="nonzero"/></g></g></g></g></svg>