<?xml version="1.0" standalone="no"?>
<!DOCTYPE svg PUBLIC "-//W3C//DTD SVG 20010904//EN"
 "http://www.w3.org/TR/2001/REC-SVG-20010904/DTD/svg10.dtd">
<svg version="1.0" xmlns="http://www.w3.org/2000/svg"
 width="180.000000pt" height="180.000000pt" viewBox="0 0 180.000000 180.000000"
 preserveAspectRatio="xMidYMid meet">

<g transform="translate(0.000000,180.000000) scale(0.100000,-0.100000)"
fill="#000000" stroke="none">
<path d="M777 1740 c-190 -34 -343 -116 -473 -252 -167 -174 -242 -377 -231
-622 10 -218 80 -385 226 -540 322 -339 871 -346 1199 -14 113 115 173 215
218 365 23 76 27 106 28 228 0 117 -4 153 -22 219 -85 298 -310 520 -607 600
-71 19 -270 29 -338 16z m313 -35 c259 -60 480 -246 576 -483 47 -116 58 -180
58 -317 0 -94 -5 -148 -18 -195 -103 -373 -418 -619 -793 -620 -321 0 -599
174 -738 464 -63 132 -79 206 -78 356 1 196 50 342 166 495 105 138 282 255
448 295 95 24 288 26 379 5z"/>
<path d="M554 1243 c-9 -21 -35 -83 -59 -138 -104 -241 -235 -554 -235 -559 0
-4 37 -6 82 -4 l82 3 31 77 30 78 60 0 61 0 57 70 c31 38 57 72 57 75 0 3 -38
5 -85 5 -47 0 -85 2 -85 5 0 8 83 210 90 218 3 4 26 -42 50 -103 l45 -110 57
58 58 57 -63 150 -64 150 -77 3 -77 3 -15 -38z"/>
<path d="M887 1273 c-4 -3 -7 -37 -7 -75 l0 -68 90 0 c86 0 94 2 178 43 48 24
114 54 147 67 33 13 64 27 69 32 6 4 -98 8 -230 8 -133 0 -244 -3 -247 -7z"/>
<path d="M1391 1189 c-120 -65 -142 -85 -312 -284 -89 -104 -167 -193 -172
-196 -20 -13 -42 -86 -39 -126 l3 -43 305 0 304 0 0 70 0 70 -199 2 -198 3
198 230 c189 220 198 232 199 273 0 23 -3 42 -7 42 -5 0 -41 -18 -82 -41z"/>
<path d="M497 453 c-11 -10 -8 -103 3 -103 6 0 10 25 10 55 0 56 -1 60 -13 48z"/>
<path d="M827 454 c-4 -4 -7 -29 -7 -55 0 -47 0 -47 33 -46 28 2 32 6 35 35 2
17 -2 33 -7 34 -6 0 -17 1 -23 2 -7 1 -15 9 -18 19 -3 10 -8 15 -13 11z m43
-64 c0 -11 -4 -20 -9 -20 -14 0 -23 18 -16 30 10 17 25 11 25 -10z"/>
<path d="M404 433 c-4 -10 -13 -33 -20 -50 -14 -37 -1 -46 22 -15 13 16 15 16
29 -2 23 -30 31 -10 14 36 -17 46 -36 59 -45 31z m26 -28 c0 -8 -4 -15 -10
-15 -5 0 -10 7 -10 15 0 8 5 15 10 15 6 0 10 -7 10 -15z"/>
<path d="M972 438 c-17 -17 -15 -63 2 -78 23 -18 61 -8 64 18 2 13 -3 25 -13
28 -23 9 -30 -3 -14 -22 12 -14 11 -16 -6 -13 -30 6 -27 53 3 57 12 2 22 8 22
13 0 13 -44 11 -58 -3z"/>
<path d="M555 420 c-3 -6 4 -10 17 -11 15 0 18 -3 8 -6 -47 -18 -47 -53 1 -50
25 2 29 6 29 33 0 37 -38 61 -55 34z m35 -40 c0 -5 -4 -10 -10 -10 -5 0 -10 5
-10 10 0 6 5 10 10 10 6 0 10 -4 10 -10z"/>
<path d="M640 420 c0 -5 7 -10 16 -10 14 0 14 -2 0 -22 -23 -32 -20 -38 17
-38 28 1 30 2 15 14 -15 11 -16 15 -3 33 8 11 11 23 8 27 -10 10 -53 7 -53 -4z"/>
<path d="M735 420 c-3 -6 4 -10 17 -11 21 -1 21 -1 -5 -11 -39 -14 -32 -42 11
-45 29 -1 32 2 32 26 0 40 -38 69 -55 41z m35 -40 c0 -5 -7 -10 -16 -10 -8 0
-12 5 -9 10 3 6 10 10 16 10 5 0 9 -4 9 -10z"/>
<path d="M1088 423 c-13 -3 -18 -15 -18 -39 0 -19 5 -34 10 -34 6 0 10 11 10
25 0 14 7 28 15 31 8 4 15 10 15 15 0 9 -4 10 -32 2z"/>
<path d="M1162 421 c-8 -5 -12 -21 -10 -37 4 -35 35 -45 55 -18 17 23 16 29
-3 48 -18 18 -24 19 -42 7z m31 -25 c6 -15 -1 -26 -15 -26 -4 0 -8 9 -8 20 0
23 15 27 23 6z"/>
<path d="M1252 394 c3 -35 6 -39 31 -40 25 -1 27 2 27 38 0 24 -4 37 -10 33
-5 -3 -10 -17 -10 -31 0 -13 -4 -24 -10 -24 -5 0 -10 11 -10 24 0 14 -5 28
-11 31 -7 5 -9 -6 -7 -31z"/>
<path d="M1368 423 c-14 -3 -18 -15 -18 -54 0 -27 5 -49 10 -49 6 0 10 9 10
19 0 11 6 18 16 17 24 -2 41 30 28 51 -12 19 -22 22 -46 16z m32 -33 c0 -11
-7 -20 -15 -20 -8 0 -15 9 -15 20 0 11 7 20 15 20 8 0 15 -9 15 -20z"/>
</g>
</svg>
